#Comment line ignore any data following # character 
#Hierarchical Translation and Rotation (.htr) file 
[Header]	
#Header keywords are followed by a single value 
FileType HTR		#Single word string
DataType HTRS		#Translation followed by rotation and scale data
FileVersion 1		#integer
NumSegments 64		#integer
NumFrames 3		#integer
DataFrameRate 30		#integer, data frame rate in this file
EulerRotationOrder ZYX
CalibrationUnits mm
RotationUnits Degrees
GlobalAxisofGravity Y
BoneLengthAxis Y
ScaleFactor 1.00
[SegmentNames&Hierarchy]
#CHILD	PARENT
Pinger_Root GLOBAL
Pelvis Pinger_Root
L_Hip Pelvis
R_Hip Pelvis
Rear_Leg01 Pelvis
Spine1 Pelvis
L_Leg01 L_Hip
L_Leg02 L_Leg01
L_Leg03 L_Leg02
L_Foot L_Leg03
L_Toe1_01 L_Foot
L_Toe2_01 L_Foot
L_Toe3_01 L_Foot
planeAlignerLeft L_Foot
L_Toe1_02 L_Toe1_01
L_Toe1_03 L_Toe1_02
L_Toe2_02 L_Toe2_01
L_Toe2_03 L_Toe2_02
L_Toe3_02 L_Toe3_01
L_Toe3_03 L_Toe3_02
planeLockWeightLeft planeAlignerLeft
R_Leg01 R_Hip
R_Leg02 R_Leg01
R_Leg03 R_Leg02
R_Foot R_Leg03
planeAlignerRight R_Foot
R_Toe1_01 R_Foot
R_Toe2_01 R_Foot
R_Toe3_01 R_Foot
planeLockWeightRight planeAlignerRight
R_Toe1_02 R_Toe1_01
R_Toe1_03 R_Toe1_02
R_Toe2_02 R_Toe2_01
R_Toe2_03 R_Toe2_02
R_Toe3_02 R_Toe3_01
R_Toe3_03 R_Toe3_02
Rear_Leg02 Rear_Leg01
Rear_Leg03 Rear_Leg02
Rear_Leg04 Rear_Leg03
Rear_Foot Rear_Leg04
planeAlignerCenter Rear_Foot
Rear_Toe1_01 Rear_Foot
Rear_Toe2_01 Rear_Foot
Rear_Toe3_01 Rear_Foot
planeLockWeightCenter planeAlignerCenter
Rear_Toe1_02 Rear_Toe1_01
Rear_Toe1_03 Rear_Toe1_02
Rear_Toe2_02 Rear_Toe2_01
Rear_Toe2_03 Rear_Toe2_02
Rear_Toe3_02 Rear_Toe3_01
Rear_Toe3_03 Rear_Toe3_02
Back_Bone Spine1
Head Spine1
Motor_Bone Back_Bone
Ping_Mechanism Back_Bone
BN_LookIK Head
bottomMouth Head
L_Mouth01 Head
L_mouthFront Head
mouthGun Head
R_Mouth01 Head
R_mouthFront Head
TopMouth Head
weapon_bone Head
[BasePosition]
#SegmentName Tx, Ty, Tz, Rx, Ry, Rz, BoneLength
Pinger_Root 0.000000 0.000000 0.000000 -90.000000 0.000000 0.000000 10.000000 
Pelvis 0.000000 0.000000 0.000000 0.000000 0.000000 0.000000 10.000000 
L_Hip 0.000000 0.000000 0.000000 0.000000 0.000000 0.000000 10.000000 
R_Hip 0.000000 0.000000 0.000000 0.000000 0.000000 0.000000 10.000000 
Rear_Leg01 0.000000 0.000000 0.000000 0.000000 0.000000 0.000000 10.000000 
Spine1 0.000000 0.000000 0.000000 0.000000 0.000000 0.000000 10.000000 
L_Leg01 0.000000 0.000000 0.000000 0.000000 0.000000 0.000000 10.000000 
L_Leg02 0.000000 0.000000 0.000000 0.000000 0.000000 0.000000 10.000000 
L_Leg03 0.000000 0.000000 0.000000 0.000000 0.000000 0.000000 10.000000 
L_Foot 0.000000 0.000000 0.000000 0.000000 0.000000 0.000000 10.000000 
L_Toe1_01 0.000000 0.000000 0.000000 0.000000 0.000000 0.000000 10.000000 
L_Toe2_01 0.000000 0.000000 0.000000 0.000000 0.000000 0.000000 10.000000 
L_Toe3_01 0.000000 0.000000 0.000000 0.000000 0.000000 0.000000 10.000000 
planeAlignerLeft 0.000000 0.000000 0.000000 0.000000 0.000000 0.000000 10.000000 
L_Toe1_02 0.000000 0.000000 0.000000 0.000000 0.000000 0.000000 10.000000 
L_Toe1_03 0.000000 0.000000 0.000000 0.000000 0.000000 0.000000 10.000000 
L_Toe2_02 0.000000 0.000000 0.000000 0.000000 0.000000 0.000000 10.000000 
L_Toe2_03 0.000000 0.000000 0.000000 0.000000 0.000000 0.000000 10.000000 
L_Toe3_02 0.000000 0.000000 0.000000 0.000000 0.000000 0.000000 10.000000 
L_Toe3_03 0.000000 0.000000 0.000000 0.000000 0.000000 0.000000 10.000000 
planeLockWeightLeft 0.000000 0.000000 0.000000 0.000000 0.000000 0.000000 10.000000 
R_Leg01 0.000000 0.000000 0.000000 0.000000 0.000000 0.000000 10.000000 
R_Leg02 0.000000 0.000000 0.000000 0.000000 0.000000 0.000000 10.000000 
R_Leg03 0.000000 0.000000 0.000000 0.000000 0.000000 0.000000 10.000000 
R_Foot 0.000000 0.000000 0.000000 0.000000 0.000000 0.000000 10.000000 
planeAlignerRight 0.000000 0.000000 0.000000 0.000000 0.000000 0.000000 10.000000 
R_Toe1_01 0.000000 0.000000 0.000000 0.000000 0.000000 0.000000 10.000000 
R_Toe2_01 0.000000 0.000000 0.000000 0.000000 0.000000 0.000000 10.000000 
R_Toe3_01 0.000000 0.000000 0.000000 0.000000 0.000000 0.000000 10.000000 
planeLockWeightRight 0.000000 0.000000 0.000000 0.000000 0.000000 0.000000 10.000000 
R_Toe1_02 0.000000 0.000000 0.000000 0.000000 0.000000 0.000000 10.000000 
R_Toe1_03 0.000000 0.000000 0.000000 0.000000 0.000000 0.000000 10.000000 
R_Toe2_02 0.000000 0.000000 0.000000 0.000000 0.000000 0.000000 10.000000 
R_Toe2_03 0.000000 0.000000 0.000000 0.000000 0.000000 0.000000 10.000000 
R_Toe3_02 0.000000 0.000000 0.000000 0.000000 0.000000 0.000000 10.000000 
R_Toe3_03 0.000000 0.000000 0.000000 0.000000 0.000000 0.000000 10.000000 
Rear_Leg02 0.000000 0.000000 0.000000 0.000000 0.000000 0.000000 10.000000 
Rear_Leg03 0.000000 0.000000 0.000000 0.000000 0.000000 0.000000 10.000000 
Rear_Leg04 0.000000 0.000000 0.000000 0.000000 0.000000 0.000000 10.000000 
Rear_Foot 0.000000 0.000000 0.000000 0.000000 0.000000 0.000000 10.000000 
planeAlignerCenter 0.000000 0.000000 0.000000 0.000000 0.000000 0.000000 10.000000 
Rear_Toe1_01 0.000000 0.000000 0.000000 0.000000 0.000000 0.000000 10.000000 
Rear_Toe2_01 0.000000 0.000000 0.000000 0.000000 0.000000 0.000000 10.000000 
Rear_Toe3_01 0.000000 0.000000 0.000000 0.000000 0.000000 0.000000 10.000000 
planeLockWeightCenter 0.000000 0.000000 0.000000 0.000000 0.000000 0.000000 10.000000 
Rear_Toe1_02 0.000000 0.000000 0.000000 0.000000 0.000000 0.000000 10.000000 
Rear_Toe1_03 0.000000 0.000000 0.000000 0.000000 0.000000 0.000000 10.000000 
Rear_Toe2_02 0.000000 0.000000 0.000000 0.000000 0.000000 0.000000 10.000000 
Rear_Toe2_03 0.000000 0.000000 0.000000 0.000000 0.000000 0.000000 10.000000 
Rear_Toe3_02 0.000000 0.000000 0.000000 0.000000 0.000000 0.000000 10.000000 
Rear_Toe3_03 0.000000 0.000000 0.000000 0.000000 0.000000 0.000000 10.000000 
Back_Bone 0.000000 0.000000 0.000000 0.000000 0.000000 0.000000 10.000000 
Head 0.000000 0.000000 0.000000 0.000000 0.000000 0.000000 10.000000 
Motor_Bone 0.000000 0.000000 0.000000 0.000000 0.000000 0.000000 10.000000 
Ping_Mechanism 0.000000 0.000000 0.000000 0.000000 0.000000 0.000000 10.000000 
BN_LookIK 0.000000 0.000000 0.000000 0.000000 0.000000 0.000000 10.000000 
bottomMouth 0.000000 0.000000 0.000000 0.000000 0.000000 0.000000 10.000000 
L_Mouth01 0.000000 0.000000 0.000000 0.000000 0.000000 0.000000 10.000000 
L_mouthFront 0.000000 0.000000 0.000000 0.000000 0.000000 0.000000 10.000000 
mouthGun 0.000000 0.000000 0.000000 0.000000 0.000000 0.000000 10.000000 
R_Mouth01 0.000000 0.000000 0.000000 0.000000 0.000000 0.000000 10.000000 
R_mouthFront 0.000000 0.000000 0.000000 0.000000 0.000000 0.000000 10.000000 
TopMouth 0.000000 0.000000 0.000000 0.000000 0.000000 0.000000 10.000000 
weapon_bone 0.000000 0.000000 0.000000 0.000000 0.000000 0.000000 10.000000 
#Beginning of Data. Separated by tabs
#Fr	Tx	Ty	Tz	Rx	Ry	Rz	SF
[Pinger_Root]
34 0.000000 0.000000 0.000000 -0.000075 -0.000000 -0.000020 0.000000
35 0.000000 0.000000 0.000000 -0.000075 -0.000000 -0.000020 0.000000
36 0.000000 0.000000 0.000000 -0.000075 -0.000000 -0.000020 0.000000
[Pelvis]
34 80.592690 951.037964 4223.454102 -89.421936 -72.691238 81.856995 4329.957520
35 82.144157 940.193054 4222.791016 -90.137634 -72.774742 82.540482 4326.971191
36 83.518829 931.850220 4222.272949 -90.607765 -73.000854 82.989799 4324.686035
[L_Hip]
34 5.766392 125.831482 872.656799 160.158691 -45.484905 122.312202 881.701050
35 5.766392 125.831482 872.656799 160.158691 -45.484905 122.312202 881.701050
36 5.766392 125.831482 872.656799 160.158691 -45.484905 122.312202 881.701050
[R_Hip]
34 5.765438 125.836372 -872.654907 38.087841 49.812687 125.703735 881.699829
35 5.765438 125.836372 -872.654907 38.087841 49.812687 125.703735 881.699829
36 5.765438 125.836372 -872.654907 38.087841 49.812687 125.703735 881.699829
[Rear_Leg01]
34 -192.298416 -925.602966 -0.001907 171.411758 5.773300 -154.638870 945.367432
35 -192.298416 -925.602966 -0.001907 171.236237 5.561929 -154.926422 945.367432
36 -192.298416 -925.602966 -0.001907 171.063965 5.321530 -155.528336 945.367432
[Spine1]
34 290.604584 5.007505 0.000477 6.926025 -1.413951 5.924443 290.647736
35 290.604584 5.007505 0.000477 6.985591 -1.276708 6.182808 290.647736
36 290.604584 5.007505 0.000477 7.045771 -1.139735 6.441300 290.647736
[L_Leg01]
34 761.932007 -0.002384 -0.069261 16.027334 -16.105944 -6.704511 761.932068
35 761.932007 -0.002384 -0.069261 16.129599 -15.973729 -6.528410 761.932068
36 761.932007 -0.002384 -0.069261 16.326347 -15.821522 -6.590088 761.932068
[L_Leg02]
34 1441.140503 -0.000954 -0.000715 3.998943 0.356357 -123.546623 1441.140503
35 1441.140503 -0.000954 -0.000715 3.987965 0.353831 -123.440781 1441.140503
36 1441.140503 -0.000954 -0.000715 3.976984 0.351326 -123.334938 1441.140503
[L_Leg03]
34 1686.963989 -0.000715 -0.000954 -0.065846 0.037730 128.385300 1686.963989
35 1686.963989 -0.000715 -0.000954 -0.065850 0.037722 128.370819 1686.963989
36 1686.963989 -0.000715 -0.000954 -0.065855 0.037714 128.356323 1686.963989
[L_Foot]
34 3041.570068 -30.715107 11.297464 1.744027 12.978968 48.938934 3041.746094
35 3041.570068 -30.715107 11.297464 1.718501 12.976599 48.781506 3041.746094
36 3041.570068 -30.715107 11.297464 1.692981 12.974160 48.624073 3041.746094
[L_Toe1_01]
34 -188.216690 -224.732346 -21.137953 94.351830 -6.850792 -179.963211 293.899567
35 -188.216690 -224.732346 -21.137953 94.351501 -6.850992 -179.957932 293.899567
36 -188.216690 -224.732346 -21.137953 94.351173 -6.851193 -179.952667 293.899567
[L_Toe2_01]
34 200.746536 -219.926590 148.838394 -92.372498 -28.345131 -45.334606 332.896027
35 200.746536 -219.926590 148.838394 -92.378914 -28.348930 -45.330009 332.896027
36 200.746536 -219.926590 148.838394 -92.385338 -28.352736 -45.325401 332.896027
[L_Toe3_01]
34 188.832520 -219.859131 -191.078659 -99.322792 16.154327 -59.722675 347.140900
35 188.832520 -219.859131 -191.078659 -99.310722 16.156809 -59.701271 347.140900
36 188.832520 -219.859131 -191.078659 -99.298637 16.159290 -59.679859 347.140900
[planeAlignerLeft]
34 32.994003 -468.751892 101.110085 169.306686 -76.298271 89.968506 480.666412
35 32.993927 -468.854919 101.110008 169.306686 -76.298271 89.968506 480.766876
36 32.993851 -468.958008 101.109947 169.306686 -76.298271 89.968506 480.867371
[L_Toe1_02]
34 413.761139 0.000477 0.000000 0.000203 -25.410625 -0.000182 413.761139
35 413.761139 0.000477 0.000000 0.000203 -25.410625 -0.000182 413.761139
36 413.761139 0.000477 0.000000 0.000203 -25.410625 -0.000182 413.761139
[L_Toe1_03]
34 464.317322 0.000358 -0.000089 0.004534 59.996193 0.004534 464.317322
35 464.317322 0.000358 -0.000089 0.004534 59.995152 0.004534 464.317322
36 464.317322 0.000358 -0.000089 0.004534 59.994114 0.004534 464.317322
[L_Toe2_02]
34 342.235809 -0.000477 0.000238 0.001199 -66.562202 0.001199 342.235809
35 342.235809 -0.000477 0.000238 0.001198 -66.620193 0.001198 342.235809
36 342.235809 -0.000477 0.000238 0.001198 -66.678207 0.001198 342.235809
[L_Toe2_03]
34 420.210846 -0.000715 0.000000 -0.001989 72.406212 -0.005527 420.210846
35 420.210846 -0.000715 0.000000 -0.002007 72.492073 -0.005545 420.210846
36 420.210846 -0.000715 0.000000 -0.002026 72.577904 -0.005564 420.210846
[L_Toe3_02]
34 329.270111 0.000954 0.000000 0.001178 -79.596443 0.001178 329.270111
35 329.270111 0.000954 0.000000 0.001178 -79.635933 0.001178 329.270111
36 329.270111 0.000954 0.000000 0.001178 -79.675392 0.001178 329.270111
[L_Toe3_03]
34 439.137451 -0.001907 0.000954 -179.993469 82.052086 -179.989960 439.137451
35 439.137451 -0.001907 0.000954 -179.993530 81.989937 -179.990021 439.137451
36 439.137451 -0.001907 0.000954 -179.993591 81.927635 -179.990097 439.137451
[planeLockWeightLeft]
34 999.998718 0.097961 0.076027 -0.011826 -0.004376 0.005620 999.998779
35 999.998718 0.097961 0.076027 -0.011826 -0.004376 0.005620 999.998779
36 999.998718 0.097961 0.076027 -0.011826 -0.004376 0.005620 999.998779
[R_Leg01]
34 761.455627 -0.001907 -0.000358 125.919754 -15.752254 25.512608 761.455688
35 761.455627 -0.001907 -0.000358 125.898560 -15.763933 25.861784 761.455688
36 761.455627 -0.001907 -0.000358 125.877274 -15.775485 26.210974 761.455688
[R_Leg02]
34 1441.140625 0.000000 -0.000238 -1.920278 -0.564117 -123.155991 1441.140625
35 1441.140625 0.000000 -0.000238 -1.906328 -0.552658 -122.701279 1441.140625
36 1441.140625 0.000000 -0.000238 -1.892287 -0.541310 -122.246552 1441.140625
[R_Leg03]
34 1686.963989 0.000954 0.001431 0.104085 -0.061824 138.145340 1686.963989
35 1686.963989 0.000954 0.001431 0.103231 -0.061319 138.036316 1686.963989
36 1686.963989 0.000954 0.001431 0.102377 -0.060815 137.927292 1686.963989
[R_Foot]
34 3041.560059 -30.531288 -11.204481 1.039957 -24.440212 53.023640 3041.734131
35 3041.560059 -30.531288 -11.204481 0.932420 -24.441944 52.771339 3041.734131
36 3041.560059 -30.531288 -11.204481 0.824891 -24.444096 52.519024 3041.734131
[planeAlignerRight]
34 -127.132088 -449.758423 -312.868195 -36.577137 -71.339012 -64.343925 562.433716
35 -127.131912 -449.861481 -312.868378 -36.577137 -71.339012 -64.343925 562.516235
36 -127.131729 -449.964539 -312.868561 -36.577137 -71.339012 -64.343925 562.598694
[R_Toe1_01]
34 -188.383347 -224.864899 21.052242 77.186157 0.049428 -175.228745 294.101532
35 -188.383347 -224.864899 21.052242 77.185829 0.049513 -175.222885 294.101532
36 -188.383347 -224.864899 21.052242 77.185516 0.049598 -175.217026 294.101532
[R_Toe2_01]
34 200.637817 -220.002121 -148.787384 -87.961250 36.086674 -50.496578 332.857574
35 200.637817 -220.002121 -148.787384 -87.980766 36.084023 -50.533028 332.857574
36 200.637817 -220.002121 -148.787384 -88.000282 36.081352 -50.569469 332.857574
[R_Toe3_01]
34 188.606735 -220.092957 191.126343 -72.823128 -9.454010 -65.650764 347.192566
35 188.606735 -220.092957 191.126343 -72.827759 -9.468460 -65.660217 347.192566
36 188.606735 -220.092957 191.126343 -72.832405 -9.482908 -65.669662 347.192566
[planeLockWeightRight]
34 999.999329 0.000000 0.076017 -0.011823 -0.004379 -0.000027 999.999329
35 999.999329 0.000000 0.076017 -0.011823 -0.004379 -0.000027 999.999329
36 999.999329 0.000000 0.076017 -0.011823 -0.004379 -0.000027 999.999329
[R_Toe1_02]
34 413.762085 0.000477 -0.000119 0.001384 -25.922302 0.001384 413.762085
35 413.762085 0.000477 -0.000119 0.001385 -25.917587 0.001385 413.762085
36 413.762085 0.000477 -0.000119 0.001385 -25.912874 0.001385 413.762085
[R_Toe1_03]
34 464.317810 0.000000 0.001088 0.004051 56.317707 0.004051 464.317810
35 464.317810 0.000000 0.001088 0.004050 56.314648 0.004050 464.317810
36 464.317810 0.000000 0.001088 0.004050 56.311592 0.004050 464.317810
[R_Toe2_02]
34 342.234741 -0.000954 0.000238 0.001216 -59.724205 0.001216 342.234741
35 342.234741 -0.000954 0.000238 0.001216 -59.798389 0.001216 342.234741
36 342.234741 -0.000954 0.000238 0.001215 -59.872566 0.001215 342.234741
[R_Toe2_03]
34 420.210846 0.000715 -0.000268 -0.004053 60.325825 -0.000436 420.210846
35 420.210846 0.000715 -0.000268 -0.004058 60.392548 -0.000441 420.210846
36 420.210846 0.000715 -0.000268 -0.004062 60.459297 -0.000446 420.210846
[R_Toe3_02]
34 329.270355 -0.000477 -0.000954 0.001186 -73.685219 0.001186 329.270355
35 329.270355 -0.000477 -0.000954 0.001186 -73.731606 0.001186 329.270355
36 329.270355 -0.000477 -0.000954 0.001185 -73.777946 0.001185 329.270355
[R_Toe3_03]
34 439.137939 0.000238 0.001431 0.015529 81.331299 0.015529 439.137939
35 439.137939 0.000238 0.001431 0.015649 81.398232 0.015649 439.137939
36 439.137939 0.000238 0.001431 0.015772 81.465027 0.015772 439.137939
[Rear_Leg02]
34 1162.777710 -0.029802 0.005960 0.407943 -2.992390 -94.757568 1162.777710
35 1162.777710 -0.029802 0.005960 0.436446 -2.988370 -95.849556 1162.777710
36 1162.777710 -0.029802 0.005960 0.462320 -2.987027 -97.235817 1162.777710
[Rear_Leg03]
34 607.192505 -0.013351 -0.073195 0.006848 -0.002258 63.106201 607.192505
35 607.192505 -0.013351 -0.073195 0.007195 -0.002485 63.293343 607.192505
36 607.192505 -0.013351 -0.073195 0.007542 -0.002714 63.480495 607.192505
[Rear_Leg04]
34 995.874512 -0.020504 -0.011921 -0.040200 -0.015987 55.896778 995.874573
35 995.874512 -0.020504 -0.011921 -0.040250 -0.015862 56.254185 995.874573
36 995.874512 -0.020504 -0.011921 -0.040300 -0.015737 56.611614 995.874573
[Rear_Foot]
34 3096.176270 -0.067472 -0.041425 -139.658203 85.825287 46.896324 3096.176270
35 3096.176270 -0.067472 -0.041425 -139.922562 85.807541 46.528923 3096.176270
36 3096.176270 -0.067472 -0.041425 -140.183350 85.796021 46.447155 3096.176270
[planeAlignerCenter]
34 1.038307 -15.213445 -652.891907 12.240772 -0.001473 179.998184 653.070007
35 1.038272 -15.213572 -652.994751 12.240769 -0.001473 179.998184 653.172791
36 1.038237 -15.213699 -653.097595 12.240773 -0.001473 179.998184 653.275574
[Rear_Toe1_01]
34 0.653352 83.966492 -371.173737 0.237432 34.829929 90.384178 380.553192
35 0.653352 83.966492 -371.173737 0.238342 34.830208 90.384384 380.553192
36 0.653352 83.966492 -371.173737 0.239252 34.830490 90.384567 380.553192
[Rear_Toe2_01]
34 178.200760 -294.826019 -362.060547 -8.129096 23.083813 -67.023537 499.765686
35 178.200760 -294.826019 -362.060547 -8.129533 23.130562 -67.024193 499.765686
36 178.200760 -294.826019 -362.060547 -8.129973 23.177313 -67.024872 499.765686
[Rear_Toe3_01]
34 -153.359680 -308.780914 -362.060852 3.711614 21.177755 -112.328682 499.952881
35 -153.359680 -308.780914 -362.060852 3.712073 21.224945 -112.328415 499.952881
36 -153.359680 -308.780914 -362.060852 3.712533 21.272137 -112.328140 499.952881
[planeLockWeightCenter]
34 1000.000000 0.000305 0.076256 -0.011814 -0.004373 -0.000015 1000.000000
35 1000.000000 0.000305 0.076256 -0.011814 -0.004373 -0.000015 1000.000000
36 1000.000000 0.000305 0.076256 -0.011814 -0.004373 -0.000015 1000.000000
[Rear_Toe1_02]
34 379.707825 0.194073 0.000477 -0.000314 -32.658131 0.006974 379.707855
35 379.707825 0.194073 0.000477 -0.000314 -32.656425 0.006974 379.707855
36 379.707825 0.194073 0.000477 -0.000314 -32.654705 0.006974 379.707855
[Rear_Toe1_03]
34 500.129700 0.165701 0.000119 -0.003906 58.032791 -0.000269 500.129761
35 500.129700 0.165701 0.000119 -0.003905 58.018646 -0.000268 500.129761
36 500.129700 0.165701 0.000119 -0.003904 58.004520 -0.000267 500.129761
[Rear_Toe2_02]
34 340.494507 0.000238 -0.000954 0.001240 -52.315086 0.001240 340.494507
35 340.494507 0.000238 -0.000954 0.001240 -52.407681 0.001240 340.494507
36 340.494507 0.000238 -0.000954 0.001239 -52.500267 0.001239 340.494507
[Rear_Toe2_03]
34 433.103577 0.000000 0.000238 -0.003445 46.902878 0.000315 433.103546
35 433.103577 0.000000 0.000238 -0.003447 46.976570 0.000312 433.103546
36 433.103577 0.000000 0.000238 -0.003449 47.050243 0.000309 433.103546
[Rear_Toe3_02]
34 340.494141 -0.000358 -0.000477 -0.002496 -47.080826 -0.002496 340.494171
35 340.494141 -0.000358 -0.000477 -0.002495 -47.158169 -0.002495 340.494171
36 340.494141 -0.000358 -0.000477 -0.002495 -47.235493 -0.002495 340.494171
[Rear_Toe3_03]
34 433.103577 0.001431 -0.000238 0.000529 41.183281 -0.003311 433.103546
35 433.103577 0.001431 -0.000238 0.000526 41.266060 -0.003312 433.103546
36 433.103577 0.001431 -0.000238 0.000523 41.348843 -0.003314 433.103546
[Back_Bone]
34 1312.175781 -701.934692 0.000954 0.000030 -0.002347 -91.487152 1488.125488
35 1312.175781 -701.934692 0.000954 0.000029 -0.002347 -91.399590 1488.125488
36 1312.175781 -701.934692 0.000954 0.000027 -0.002347 -91.312027 1488.125488
[Head]
34 1406.159424 809.709290 0.001431 0.096695 -1.471370 7.256249 1622.625488
35 1406.159424 809.709290 0.001431 0.057344 -1.475928 8.754138 1622.625488
36 1406.159424 809.709290 0.001431 0.026448 -1.475173 10.005143 1622.625488
[Motor_Bone]
34 1158.364380 -417.834747 0.000477 -0.037978 0.140154 -109.268394 1231.419434
35 1158.364380 -417.834747 0.000477 -0.041278 0.136517 -106.722664 1231.419434
36 1158.364380 -417.834747 0.000477 -0.044737 0.133031 -104.176926 1231.419434
[Ping_Mechanism]
34 1300.212280 -451.734009 12.119510 0.000103 -0.000053 82.120995 1376.503662
35 1299.076050 -451.992645 11.320945 0.000103 -0.000053 82.120995 1375.508667
36 1297.939819 -452.251282 10.522382 0.000103 -0.000053 82.120995 1374.514282
[BN_LookIK]
34 193.241119 1380.371704 -0.002861 0.000000 89.965736 -31.038179 1393.832153
35 193.241119 1380.371704 -0.002861 0.000000 89.965736 -31.038179 1393.832153
36 193.241119 1380.371704 -0.002861 0.000000 89.965736 -31.038179 1393.832153
[bottomMouth]
34 -435.092926 615.759399 -0.000954 -0.000022 0.000016 73.527184 753.966492
35 -435.092926 615.759399 -0.000954 -0.000022 0.000016 73.527184 753.966492
36 -435.092926 615.759399 -0.000954 -0.000022 0.000016 73.527184 753.966492
[L_Mouth01]
34 554.440979 7.658243 838.222046 150.204178 23.759130 109.605339 1005.027161
35 554.440979 7.658243 838.222046 150.204178 23.759130 109.605339 1005.027161
36 554.440979 7.658243 838.222046 150.204178 23.759130 109.605339 1005.027161
[L_mouthFront]
34 551.629089 934.514771 339.150421 0.000081 2.804060 79.119301 1136.941284
35 551.629089 934.514771 339.150421 0.000081 2.804060 79.119301 1136.941284
36 551.629089 934.514771 339.150421 0.000081 2.804060 79.119301 1136.941284
[mouthGun]
34 55.332661 1627.420898 0.000000 0.000023 0.000009 -11.038128 1628.361328
35 55.332661 1627.420898 0.000000 0.000023 0.000009 -11.038128 1628.361328
36 55.332661 1627.420898 0.000000 0.000023 0.000009 -11.038128 1628.361328
[R_Mouth01]
34 554.442383 7.659197 -838.223938 29.795891 -23.759109 109.605331 1005.029541
35 554.442383 7.659197 -838.223938 29.795891 -23.759109 109.605331 1005.029541
36 554.442383 7.659197 -838.223938 29.795891 -23.759109 109.605331 1005.029541
[R_mouthFront]
34 551.629089 934.514282 -339.151367 0.000029 -2.803930 79.119133 1136.941162
35 551.629089 934.514282 -339.151367 0.000029 -2.803930 79.119133 1136.941162
36 551.629089 934.514282 -339.151367 0.000029 -2.803930 79.119133 1136.941162
[TopMouth]
34 461.269867 -56.106091 -0.008583 -0.000059 -0.000268 92.025169 464.669525
35 461.269867 -56.106091 -0.008583 -0.000059 -0.000268 92.025169 464.669525
36 461.269867 -56.106091 -0.008583 -0.000059 -0.000268 92.025169 464.669525
[weapon_bone]
34 -987.239868 1448.372803 0.001431 0.000000 89.965736 -31.038221 1752.833740
35 -987.239868 1448.372803 0.001431 0.000000 89.965736 -31.038221 1752.833740
36 -987.239868 1448.372803 0.001431 0.000000 89.965736 -31.038221 1752.833740
